<svg width="11" height="10" viewBox="0 0 11 10" fill="none" xmlns="http://www.w3.org/2000/svg">
<path d="M10.9874 0.530047L10.0778 5.98752C10.0615 6.08439 10.0143 6.17339 9.94322 6.2412C9.87216 6.30901 9.78104 6.35199 9.68351 6.36371C9.58598 6.37544 9.48727 6.35527 9.40216 6.30623C9.31704 6.25719 9.25009 6.18192 9.21132 6.09167L8.11109 3.52529L1.76397 9.87234C1.67818 9.95518 1.56329 10.001 1.44404 9.99998C1.32479 9.99895 1.21071 9.95112 1.12638 9.8668C1.04205 9.78247 0.994217 9.66841 0.99318 9.54916C0.992144 9.42992 1.03799 9.31504 1.12084 9.22926L7.46796 2.88222L4.90182 1.78208C4.81157 1.74331 4.73628 1.67637 4.68724 1.59126C4.6382 1.50615 4.61803 1.40746 4.62976 1.30993C4.64148 1.21241 4.68447 1.1213 4.75228 1.05024C4.8201 0.979181 4.9091 0.931982 5.00598 0.915709L10.4639 0.00612928C10.5353 -0.00571059 10.6085 -0.000345217 10.6774 0.021781C10.7463 0.0439062 10.8089 0.0821543 10.8601 0.133345C10.9112 0.184536 10.9494 0.247192 10.9715 0.316109C10.9936 0.385026 10.9989 0.458214 10.987 0.529592L10.9874 0.530047Z" fill="#2CFEE1"/>
</svg>
