<svg width="10" height="10" viewBox="0 0 10 10" fill="none" xmlns="http://www.w3.org/2000/svg">
<path d="M9.99402 9.46995L9.08436 4.01248C9.06809 3.91561 9.02088 3.82661 8.94982 3.7588C8.87875 3.69099 8.78763 3.64801 8.6901 3.63629C8.59257 3.62456 8.49386 3.64473 8.40875 3.69377C8.32363 3.74281 8.25668 3.81808 8.21791 3.90833L7.11768 6.47471L0.77056 0.127664C0.684778 0.0448209 0.569887 -0.00101932 0.450633 1.68741e-05C0.331379 0.00105307 0.217302 0.0488828 0.132973 0.133204C0.0486441 0.217526 0.000810604 0.331593 -0.000226047 0.450837C-0.0012627 0.570082 0.0445814 0.684963 0.127432 0.770737L6.47456 7.11778L3.90842 8.21792C3.81816 8.25669 3.74288 8.32363 3.69384 8.40874C3.64479 8.49385 3.62463 8.59254 3.63635 8.69007C3.64807 8.78759 3.69106 8.8787 3.75888 8.94976C3.82669 9.02082 3.9157 9.06802 4.01257 9.08429L9.47051 9.99387C9.5419 10.0057 9.61509 10.0003 9.684 9.97822C9.7529 9.95609 9.81553 9.91785 9.86668 9.86666C9.91783 9.81546 9.95603 9.75281 9.97809 9.68389C10.0002 9.61497 10.0055 9.54179 9.99356 9.47041L9.99402 9.46995Z" fill="#FF005C"/>
</svg>
