<svg width="40" height="40" viewBox="0 0 40 40" fill="#9AA1AC" xmlns="http://www.w3.org/2000/svg">
<circle cx="20" cy="20" r="18.5" stroke="url(#paint0_linear)" stroke-width="3"/>
<path d="M19.8125 23.25C19.3152 23.25 18.8383 23.0525 18.4867 22.7008C18.135 22.3492 17.9375 21.8723 17.9375 21.375V10.125C17.9375 9.62772 18.135 9.15081 18.4867 8.79918C18.8383 8.44754 19.3152 8.25 19.8125 8.25C20.3098 8.25 20.7867 8.44754 21.1383 8.79918C21.49 9.15081 21.6875 9.62772 21.6875 10.125V21.375C21.6875 21.8723 21.49 22.3492 21.1383 22.7008C20.7867 23.0525 20.3098 23.25 19.8125 23.25ZM17 27.9375C17 27.1916 17.2963 26.4762 17.8238 25.9488C18.3512 25.4213 19.0666 25.125 19.8125 25.125C20.5584 25.125 21.2738 25.4213 21.8012 25.9488C22.3287 26.4762 22.625 27.1916 22.625 27.9375C22.625 28.6834 22.3287 29.3988 21.8012 29.9262C21.2738 30.4537 20.5584 30.75 19.8125 30.75C19.0666 30.75 18.3512 30.4537 17.8238 29.9262C17.2963 29.3988 17 28.6834 17 27.9375Z" fill="url(#paint1_linear)"/>
<defs>
<linearGradient id="paint0_linear" x1="20" y1="0" x2="20" y2="40" gradientUnits="userSpaceOnUse">
<stop stop-color="#9AA1AC"/>
<stop offset="1" stop-color="#23272E"/>
</linearGradient>
<linearGradient id="paint1_linear" x1="19.8125" y1="8.25" x2="19.8125" y2="30.75" gradientUnits="userSpaceOnUse">
<stop stop-color="#9AA1AC"/>
<stop offset="1" stop-color="#23272E"/>
</linearGradient>
</defs>
</svg>
