<svg width="48" height="60" viewBox="0 0 48 60" fill="none" xmlns="http://www.w3.org/2000/svg">
<g clip-path="url(#clip0)">
<path fill-rule="evenodd" clip-rule="evenodd" d="M10.0524 2.21152C6.28272 3.4178 2.48796 4.62409 1.59581 4.90053L0 5.41571L0 16.4984C0 23.133 0.0502618 28.134 0.125654 28.9634C0.678534 34.7686 3.19162 40.2723 7.38848 44.8461C8.34346 45.889 23.4974 59.0953 23.9246 59.2586C24.1005 59.3215 37.4199 47.9623 39.6063 45.8764C43.4011 42.2702 46.3665 36.9927 47.422 31.9414C47.9749 29.2775 48.0126 28.2848 47.9749 16.4733L47.9372 5.36545L39.4052 2.67645C34.7183 1.20629 30.8607 0.0125694 30.8356 0.025135C30.823 0.0502663 31.5267 1.44503 32.4188 3.14137L34.0398 6.2199L36.4649 6.99896C37.7969 7.42618 39.8073 8.06702 40.9382 8.41885L42.9864 9.05969L42.9361 19.2628C42.8984 29.0639 42.8859 29.5162 42.6346 30.6597C41.6796 34.9696 39.7068 38.6262 36.6785 41.7173C36.1005 42.3079 33.1602 44.9089 30.1571 47.4848C27.1539 50.0733 24.5403 52.3225 24.3518 52.4984L24.0251 52.8L18.2576 47.8367C11.2084 41.755 10.1529 40.7246 8.46911 38.1361C7.17487 36.1382 6.2199 33.9895 5.64189 31.7655C5.07644 29.5037 5.02618 28.6618 5.02618 18.5843L5.02618 9.07226L6.82304 8.50681C7.80314 8.19268 9.81361 7.55184 11.2838 7.08692C12.7414 6.622 13.9476 6.19477 13.9476 6.15707C13.9476 6.11937 14.6513 4.73717 15.5183 3.0911C16.3853 1.43246 17.089 0.0628319 17.089 0.0377007C17.089 -0.0376892 16.9382 0.0125694 10.0524 2.21152Z" fill="#FF4C2F"/>
<path fill-rule="evenodd" clip-rule="evenodd" d="M23.6734 0.402094C23.5603 0.628271 20.3938 6.67225 16.6493 13.822L9.83887 26.8272L9.93939 27.8827C10.1656 30.044 10.9698 32.3309 12.2766 34.4042C12.7415 35.1581 12.8797 35.2963 13.0054 35.1581C13.0808 35.0702 15.5687 30.3707 18.5342 24.7162C21.487 19.0743 23.9373 14.4503 23.9876 14.4503C24.0253 14.4503 26.5132 19.0241 29.5038 24.6031C32.4944 30.1822 34.9949 34.844 35.0703 34.9696C35.1959 35.1832 35.2211 35.1707 35.4221 34.9068C36.7164 33.2105 37.7844 30.4084 38.086 27.933L38.2368 26.6764L31.0996 13.3696C27.1792 6.05655 23.9499 0.0376949 23.9247 0.0251293C23.9122 -1.90735e-06 23.7991 0.163351 23.6734 0.402094Z" fill="#FF4C2F"/>
<path fill-rule="evenodd" clip-rule="evenodd" d="M20.4819 32.4063L17.0264 39.3047L18.974 41.001C20.0421 41.9309 21.6128 43.2754 22.4546 43.9791L24.0002 45.2607L24.3395 44.9843C24.5405 44.8335 26.086 43.489 27.7824 41.9937L30.886 39.2796L27.4431 32.3937C25.5457 28.6115 23.9876 25.5079 23.9625 25.5079C23.9499 25.5079 22.3792 28.6115 20.4819 32.4063Z" fill="#FF4C2F"/>
</g>
<defs>
<clipPath id="clip0">
<rect width="48" height="59.3089" fill="white"/>
</clipPath>
</defs>
</svg>
