<svg width="90" height="81" viewBox="0 0 90 81" fill="none" xmlns="http://www.w3.org/2000/svg">
<g clip-path="url(#clip0)">
<path fill-rule="evenodd" clip-rule="evenodd" d="M25.7578 73.9486L37.5473 77.0794V72.9853L38.5097 72.022H45.2465V76.8386V80.2102H38.0285L29.1262 76.3569L25.7578 73.9486Z" fill="#CDBDB2"/>
<path fill-rule="evenodd" clip-rule="evenodd" d="M64.2544 73.9486L52.7055 77.0794V72.9853L51.7431 72.022H45.0063V76.8386V80.2102H52.2243L61.1266 76.3569L64.2544 73.9486Z" fill="#CDBDB2"/>
<path fill-rule="evenodd" clip-rule="evenodd" d="M38.5098 65.0379L37.5474 72.9853L38.7504 72.022H51.2617L52.7053 72.9853L51.7429 65.0379L49.8181 63.8338L40.194 64.0746L38.5098 65.0379Z" fill="#393939"/>
<path fill-rule="evenodd" clip-rule="evenodd" d="M32.0137 11.3331L37.7881 24.8195L40.4347 64.0746H49.8182L52.7054 24.8195L57.9987 11.3331H32.0137Z" fill="#F89C35"/>
<path fill-rule="evenodd" clip-rule="evenodd" d="M6.75052 40.955L0.0136719 60.4622L16.8558 59.4989H27.6829V51.0699L27.2017 33.7302L24.7956 35.6568L6.75052 40.955Z" fill="#F89D35"/>
<path fill-rule="evenodd" clip-rule="evenodd" d="M19.5024 43.1225L39.2318 43.6042L37.0664 53.719L27.6829 51.3107L19.5024 43.1225Z" fill="#D87C30"/>
<path fill-rule="evenodd" clip-rule="evenodd" d="M19.5024 43.3633L27.6829 51.0699V58.7764L19.5024 43.3633Z" fill="#EA8D3A"/>
<path fill-rule="evenodd" clip-rule="evenodd" d="M27.6831 51.3107L37.3072 53.719L40.435 64.0746L38.2696 65.2788L27.6831 59.0172V51.3107Z" fill="#F89D35"/>
<path fill-rule="evenodd" clip-rule="evenodd" d="M27.6826 59.0172L25.7578 73.9486L38.5097 65.0379L27.6826 59.0172Z" fill="#EB8F35"/>
<path fill-rule="evenodd" clip-rule="evenodd" d="M39.2317 43.6042L40.4347 64.0746L36.8257 53.5986L39.2317 43.6042Z" fill="#EA8E3A"/>
<path fill-rule="evenodd" clip-rule="evenodd" d="M16.6152 59.258L27.6829 59.0172L25.7581 73.9486L16.6152 59.258Z" fill="#D87C30"/>
<path fill-rule="evenodd" clip-rule="evenodd" d="M5.30691 80.451L25.7581 73.9486L16.6152 59.258L0.0136719 60.4622L5.30691 80.451Z" fill="#EB8F35"/>
<path fill-rule="evenodd" clip-rule="evenodd" d="M37.7882 24.8195L27.4423 33.4893L19.5024 43.1225L39.2318 43.845L37.7882 24.8195Z" fill="#E8821E"/>
<path fill-rule="evenodd" clip-rule="evenodd" d="M25.7578 73.9486L38.5097 65.0379L37.5473 72.7445V77.0794L28.8856 75.3936L25.7578 73.9486Z" fill="#DFCEC3"/>
<path fill-rule="evenodd" clip-rule="evenodd" d="M64.2544 73.9486L51.7431 65.0379L52.7055 72.7445V77.0794L61.3672 75.3936L64.2544 73.9486Z" fill="#DFCEC3"/>
<path fill-rule="evenodd" clip-rule="evenodd" d="M33.9383 47.9391L36.585 53.4781L27.2015 51.0699L33.9383 47.9391Z" fill="#393939"/>
<path fill-rule="evenodd" clip-rule="evenodd" d="M5.06641 0.0141296L37.7882 24.8195L32.2544 11.3331L5.06641 0.0141296Z" fill="#E88F35"/>
<path fill-rule="evenodd" clip-rule="evenodd" d="M5.06618 0.0141296L0.735352 13.2597L3.14137 27.7094L1.45716 28.6728L3.86317 30.8402L1.93836 32.526L4.58498 34.9343L2.90077 36.3793L6.75039 41.1959L24.7955 35.6568C33.6176 28.5925 37.9484 24.9801 37.788 24.8195C37.6276 24.659 26.7203 16.3905 5.06618 0.0141296Z" fill="#8E5A30"/>
<path fill-rule="evenodd" clip-rule="evenodd" d="M83.2617 40.955L89.9985 60.4622L73.1564 59.4989H62.3293V51.0699L62.8105 33.7302L65.2166 35.6568L83.2617 40.955Z" fill="#F89D35"/>
<path fill-rule="evenodd" clip-rule="evenodd" d="M70.5098 43.1225L50.7804 43.6042L52.9458 53.719L62.3293 51.3107L70.5098 43.1225Z" fill="#D87C30"/>
<path fill-rule="evenodd" clip-rule="evenodd" d="M70.5098 43.3633L62.3293 51.0699V58.7764L70.5098 43.3633Z" fill="#EA8D3A"/>
<path fill-rule="evenodd" clip-rule="evenodd" d="M62.3291 51.3107L52.705 53.719L49.5772 64.0746L51.7426 65.2788L62.3291 59.0172V51.3107Z" fill="#F89D35"/>
<path fill-rule="evenodd" clip-rule="evenodd" d="M62.3296 59.0172L64.2544 73.9486L51.7431 65.2788L62.3296 59.0172Z" fill="#EB8F35"/>
<path fill-rule="evenodd" clip-rule="evenodd" d="M50.7805 43.6042L49.5775 64.0746L53.1865 53.5986L50.7805 43.6042Z" fill="#EA8E3A"/>
<path fill-rule="evenodd" clip-rule="evenodd" d="M73.397 59.258L62.3293 59.0172L64.2541 73.9486L73.397 59.258Z" fill="#D87C30"/>
<path fill-rule="evenodd" clip-rule="evenodd" d="M84.7053 80.451L64.2541 73.9486L73.397 59.258L89.9985 60.4622L84.7053 80.451Z" fill="#EB8F35"/>
<path fill-rule="evenodd" clip-rule="evenodd" d="M52.224 24.8195L62.5699 33.4893L70.5098 43.1225L50.7804 43.845L52.224 24.8195Z" fill="#E8821E"/>
<path fill-rule="evenodd" clip-rule="evenodd" d="M56.0739 47.9391L53.4272 53.4781L62.8107 51.0699L56.0739 47.9391Z" fill="#393939"/>
<path fill-rule="evenodd" clip-rule="evenodd" d="M84.9458 0.0141296L52.224 24.8195L57.7578 11.3331L84.9458 0.0141296Z" fill="#E88F35"/>
<path fill-rule="evenodd" clip-rule="evenodd" d="M84.946 0.0141296L89.2769 13.2597L86.8708 27.7094L88.5551 28.6728L86.149 30.8402L88.0738 32.526L85.4272 34.9343L87.1114 36.3793L83.2618 41.1959L65.2167 35.6568C56.3946 28.5925 52.0638 24.9801 52.2242 24.8195C52.3846 24.659 63.2919 16.3905 84.946 0.0141296Z" fill="#8E5A30"/>
</g>
<defs>
<clipPath id="clip0">
<rect width="90" height="80.4786" fill="white"/>
</clipPath>
</defs>
</svg>
