<svg width="50" height="44" viewBox="0 0 50 44" fill="none" xmlns="http://www.w3.org/2000/svg">
<g clip-path="url(#clip0)">
<path fill-rule="evenodd" clip-rule="evenodd" d="M0 0H5.80839C12.3034 0 17.5687 5.19832 17.5687 11.6108V20.8128C17.5687 23.8911 20.0962 26.3864 23.2141 26.3864C26.332 26.3864 28.8595 23.8911 28.8595 20.8128V11.6108C28.8595 5.19832 34.1247 0 40.6197 0H46.5263V20.4536C46.5263 33.1382 36.1111 43.4211 23.2632 43.4211C10.4153 43.4211 0 33.1382 0 20.4536V0Z" fill="url(#paint0_linear)"/>
<path fill-rule="evenodd" clip-rule="evenodd" d="M0 0H5.80839C12.3034 0 17.5687 5.19832 17.5687 11.6108V20.8128C17.5687 23.8911 20.0962 26.3864 23.2141 26.3864C26.332 26.3864 28.8595 23.8911 28.8595 20.8128V11.6108C28.8595 5.19832 34.1247 0 40.6197 0H46.5263V20.4536C46.5263 33.1382 36.1111 43.4211 23.2632 43.4211C10.4153 43.4211 0 33.1382 0 20.4536V0Z" fill="url(#paint1_linear)"/>
<path fill-rule="evenodd" clip-rule="evenodd" d="M0 0H5.80839C12.3034 0 17.5687 5.19832 17.5687 11.6108V20.8128C17.5687 23.8911 20.0962 26.3864 23.2141 26.3864C26.332 26.3864 28.8595 23.8911 28.8595 20.8128V11.6108C28.8595 5.19832 34.1247 0 40.6197 0H46.5263V20.4536C46.5263 33.1382 36.1111 43.4211 23.2632 43.4211C10.4153 43.4211 0 33.1382 0 20.4536V0Z" fill="url(#paint2_linear)"/>
<path fill-rule="evenodd" clip-rule="evenodd" d="M0 0H5.80839C12.3034 0 17.5687 5.19832 17.5687 11.6108V20.8128C17.5687 23.8911 20.0962 26.3864 23.2141 26.3864C26.332 26.3864 28.8595 23.8911 28.8595 20.8128V11.6108C28.8595 5.19832 34.1247 0 40.6197 0H46.5263V20.4536C46.5263 33.1382 36.1111 43.4211 23.2632 43.4211C10.4153 43.4211 0 33.1382 0 20.4536V0Z" fill="url(#paint3_linear)"/>
<path opacity="0.973865" fill-rule="evenodd" clip-rule="evenodd" d="M24.2212 26.3712L27.008 27.6583L32.424 27.1696L34.8845 26.3712L37.763 25.3537L40.9966 22.632L43.647 21.3071L44.8754 17.7488L45.313 14.7822L45.975 12.6503V9.12909L46.3782 5.8912V3.30457C45.6003 8.5878 45.1441 9.85607 44.4026 11.3666C43.2905 13.6325 43.2905 13.6789 41.7893 15.7209C40.2883 17.7629 39.4591 18.7411 37.1545 20.5868C34.8499 22.4325 33.9472 22.9612 31.3766 24.0141C29.6629 24.7161 27.8936 25.2532 26.0688 25.6255L24.2212 26.3712Z" fill="url(#paint4_linear)"/>
<path fill-rule="evenodd" clip-rule="evenodd" d="M0 0H5.80839C12.3034 0 17.5687 5.19832 17.5687 11.6108V20.8128C17.5687 23.8911 20.0962 26.3864 23.2141 26.3864C26.332 26.3864 28.8595 23.8911 28.8595 20.8128V11.6108C28.8595 5.19832 34.1247 0 40.6197 0H46.5263V20.4536C46.5263 33.1382 36.1111 43.4211 23.2632 43.4211C10.4153 43.4211 0 33.1382 0 20.4536V0Z" fill="url(#paint5_linear)"/>
<path fill-rule="evenodd" clip-rule="evenodd" d="M0 0H5.80839C12.3034 0 17.5687 5.19832 17.5687 11.6108V20.7643C17.5687 23.8693 20.1182 26.3864 23.2632 26.3864C26.9603 26.3864 30.6061 25.5321 33.9088 23.892L34.1655 23.7645C37.6274 22.0453 40.5841 19.4775 42.7528 16.307L42.773 16.2774C44.9479 13.0978 46.1766 9.37995 46.3195 5.54579L46.5263 0V20.4536C46.5263 33.1382 36.1111 43.4211 23.2632 43.4211C10.4153 43.4211 0 33.1382 0 20.4536V0Z" fill="url(#paint6_linear)"/>
<path fill-rule="evenodd" clip-rule="evenodd" d="M0 0H5.80839C12.3034 0 17.5687 5.19832 17.5687 11.6108V20.7643C17.5687 23.8693 20.1182 26.3864 23.2632 26.3864C26.9603 26.3864 30.6061 25.5321 33.9088 23.892L34.1655 23.7645C37.6274 22.0453 40.5841 19.4775 42.7528 16.307L42.773 16.2774C44.9479 13.0978 46.1766 9.37995 46.3195 5.54579L46.5263 0V20.4536C46.5263 33.1382 36.1111 43.4211 23.2632 43.4211C10.4153 43.4211 0 33.1382 0 20.4536V0Z" fill="url(#paint7_linear)"/>
<mask id="mask0" mask-type="alpha" maskUnits="userSpaceOnUse" x="0" y="0" width="47" height="44">
<path fill-rule="evenodd" clip-rule="evenodd" d="M0 0H5.80839C12.3034 0 17.5687 5.19832 17.5687 11.6108V20.7643C17.5687 23.8693 20.1182 26.3864 23.2632 26.3864C26.9603 26.3864 30.6061 25.5321 33.9088 23.892L34.1655 23.7645C37.6274 22.0453 40.5841 19.4775 42.7528 16.307L42.773 16.2774C44.9479 13.0978 46.1766 9.37995 46.3195 5.54579L46.5263 0V20.4536C46.5263 33.1382 36.1111 43.4211 23.2632 43.4211C10.4153 43.4211 0 33.1382 0 20.4536V0Z" fill="url(#paint8_linear)"/>
</mask>
<g mask="url(#mask0)">
<path opacity="0.5" fill-rule="evenodd" clip-rule="evenodd" d="M17.5461 17.6551L17.0752 20.9495L16.43 26.5055L14.661 28.4626L14.2725 31.4568L15.2608 35.5368L15.2531 38.4699L17.9067 41.1658L20.3854 42.8978L22.0088 44.4479L25.1867 46.0464L27.9258 47.871L30.2601 49.0454L28.3684 47.7371C27.2547 46.9668 26.2225 46.0878 25.2873 45.1132L24.69 44.4905C24.1555 43.9333 23.5205 43.4793 22.8176 43.1517C22.1352 42.8338 21.6044 42.2668 21.3368 41.5703L21.0696 40.8749C20.6172 39.6972 20.3854 38.4482 20.3854 37.1885V25.6257L19.3826 24.8384L18.4686 23.8049L18.2404 23.4116L18.1858 23.3004C18.1071 23.14 18.0338 22.9771 17.9659 22.8121C17.898 22.647 17.839 22.4785 17.789 22.3075L17.7817 22.2824C17.7268 22.0946 17.684 21.9035 17.6534 21.7105L17.6272 21.5447L17.5461 20.8705V17.6551Z" fill="url(#paint9_linear)"/>
<path fill-rule="evenodd" clip-rule="evenodd" d="M0 0H5.80839C12.3034 0 17.5687 5.19832 17.5687 11.6108V20.7643C17.5687 23.8693 20.1182 26.3864 23.2632 26.3864C26.9603 26.3864 30.6061 25.5321 33.9088 23.892L34.1655 23.7645C37.6274 22.0453 40.5841 19.4775 42.7528 16.307L42.773 16.2774C44.9479 13.0978 46.1766 9.37995 46.3195 5.54579L46.5263 0V20.4536C46.5263 33.1382 36.1111 43.4211 23.2632 43.4211C10.4153 43.4211 0 33.1382 0 20.4536V0Z" fill="url(#paint10_linear)"/>
<path fill-rule="evenodd" clip-rule="evenodd" d="M0 0H5.80839C12.3034 0 17.5687 5.19832 17.5687 11.6108V14.4207V37.7989C17.5687 40.9039 20.1182 43.4211 23.2632 43.4211C10.4153 43.4211 0 33.1382 0 20.4536V0Z" fill="url(#paint11_linear)"/>
<path fill-rule="evenodd" clip-rule="evenodd" d="M0 0H5.80839C12.3034 0 17.5687 5.19832 17.5687 11.6108V14.4207V37.7989C17.5687 40.9039 20.1182 43.4211 23.2632 43.4211C10.4153 43.4211 0 33.1382 0 20.4536V0Z" fill="url(#paint12_linear)"/>
</g>
</g>
<defs>
<linearGradient id="paint0_linear" x1="23.2632" y1="0" x2="23.2632" y2="43.4211" gradientUnits="userSpaceOnUse">
<stop stop-color="#DEEDFF"/>
<stop offset="1" stop-color="#B2D4FD"/>
</linearGradient>
<linearGradient id="paint1_linear" x1="42.1109" y1="2.31126" x2="40.7575" y2="27.2857" gradientUnits="userSpaceOnUse">
<stop stop-color="#00D6D9"/>
<stop offset="1" stop-color="#455CDA"/>
</linearGradient>
<linearGradient id="paint2_linear" x1="30.0932" y1="2.31126" x2="39.4175" y2="15.785" gradientUnits="userSpaceOnUse">
<stop stop-color="#00D6D9"/>
<stop offset="1" stop-color="#04CFD9" stop-opacity="0"/>
</linearGradient>
<linearGradient id="paint3_linear" x1="30.1724" y1="21.7105" x2="33.2055" y2="25.6936" gradientUnits="userSpaceOnUse">
<stop stop-color="#3F66DA" stop-opacity="0"/>
<stop offset="1" stop-color="#2E2EAE"/>
</linearGradient>
<linearGradient id="paint4_linear" x1="32.7549" y1="17.5075" x2="35.7592" y2="25.2021" gradientUnits="userSpaceOnUse">
<stop stop-color="#2D41B3" stop-opacity="0"/>
<stop offset="1" stop-color="#141E62"/>
</linearGradient>
<linearGradient id="paint5_linear" x1="20.2043" y1="10.3841" x2="37.562" y2="30.3839" gradientUnits="userSpaceOnUse">
<stop stop-color="#3F66DA" stop-opacity="0"/>
<stop offset="1" stop-color="#2436C1"/>
</linearGradient>
<linearGradient id="paint6_linear" x1="57.0353" y1="53.4097" x2="41.1999" y2="12.2932" gradientUnits="userSpaceOnUse">
<stop stop-color="#706AE1"/>
<stop offset="1" stop-color="#4352ED"/>
</linearGradient>
<linearGradient id="paint7_linear" x1="88.7084" y1="2.31127" x2="49.8497" y2="50.9716" gradientUnits="userSpaceOnUse">
<stop stop-color="#00D6D9"/>
<stop offset="1" stop-color="#0FC4DD" stop-opacity="0"/>
</linearGradient>
<linearGradient id="paint8_linear" x1="32.5572" y1="30.6213" x2="18.6722" y2="39.9814" gradientUnits="userSpaceOnUse">
<stop stop-color="#3F4DDA" stop-opacity="0"/>
<stop offset="1" stop-color="#2736A4"/>
</linearGradient>
<linearGradient id="paint9_linear" x1="25.256" y1="30.7289" x2="17.1869" y2="30.7668" gradientUnits="userSpaceOnUse">
<stop stop-color="#2D41B3" stop-opacity="0"/>
<stop offset="1" stop-color="#141E62"/>
</linearGradient>
<linearGradient id="paint10_linear" x1="32.5572" y1="30.6213" x2="18.6722" y2="39.9814" gradientUnits="userSpaceOnUse">
<stop stop-color="#3F4DDA" stop-opacity="0"/>
<stop offset="1" stop-color="#2736A4"/>
</linearGradient>
<linearGradient id="paint11_linear" x1="8.9455" y1="4.6877e-07" x2="22.3743" y2="30.3184" gradientUnits="userSpaceOnUse">
<stop stop-color="#00D6D9"/>
<stop offset="1" stop-color="#5272EE"/>
</linearGradient>
<linearGradient id="paint12_linear" x1="6.46924" y1="10.5347" x2="16.8699" y2="26.5859" gradientUnits="userSpaceOnUse">
<stop stop-color="#00D6D9"/>
<stop offset="1" stop-color="#0FC4DD" stop-opacity="0"/>
</linearGradient>
<clipPath id="clip0">
<rect width="50" height="43.4211" fill="white"/>
</clipPath>
</defs>
</svg>
