<svg width="56" height="56" viewBox="0 0 56 56" fill="none" xmlns="http://www.w3.org/2000/svg">
<path fill-rule="evenodd" clip-rule="evenodd" d="M28 0C43.464 0 56 12.536 56 28C56 43.464 43.464 56 28 56C12.536 56 0 43.464 0 28C0 12.536 12.536 0 28 0Z" fill="url(#paint0_radial)"/>
<path d="M17.7944 21.6244C23.4308 16.1252 32.5692 16.1252 38.2056 21.6244L38.884 22.2862C39.1658 22.5612 39.1658 23.007 38.884 23.282L36.5635 25.546C36.4226 25.6835 36.1941 25.6835 36.0532 25.546L35.1197 24.6352C31.1876 20.7988 24.8124 20.7988 20.8803 24.6352L19.8806 25.6106C19.7397 25.748 19.5113 25.748 19.3704 25.6106L17.0499 23.3465C16.768 23.0716 16.768 22.6258 17.0499 22.3508L17.7944 21.6244ZM43.0046 26.3066L45.0699 28.3216C45.3517 28.5966 45.3517 29.0424 45.0699 29.3173L35.7575 38.4032C35.4757 38.6781 35.0188 38.6781 34.737 38.4032C34.737 38.4032 34.737 38.4032 34.737 38.4032L28.1276 31.9547C28.0572 31.8859 27.9429 31.8859 27.8725 31.9547C27.8725 31.9547 27.8725 31.9547 27.8725 31.9547L21.2633 38.4032C20.9815 38.6781 20.5246 38.6781 20.2427 38.4032C20.2427 38.4032 20.2427 38.4032 20.2427 38.4032L10.9301 29.3172C10.6483 29.0423 10.6483 28.5965 10.9301 28.3215L12.9954 26.3065C13.2772 26.0316 13.7341 26.0316 14.0159 26.3065L20.6254 32.7551C20.6958 32.8238 20.8101 32.8238 20.8805 32.7551C20.8805 32.7551 20.8805 32.7551 20.8805 32.7551L27.4896 26.3065C27.7714 26.0315 28.2283 26.0315 28.5102 26.3065C28.5102 26.3065 28.5102 26.3065 28.5102 26.3065L35.1196 32.7551C35.1901 32.8238 35.3043 32.8238 35.3748 32.7551L41.9841 26.3066C42.2659 26.0317 42.7228 26.0317 43.0046 26.3066Z" fill="white"/>
<defs>
<radialGradient id="paint0_radial" cx="0" cy="0" r="1" gradientUnits="userSpaceOnUse" gradientTransform="translate(0 28) scale(56)">
<stop stop-color="#5D9DF6"/>
<stop offset="1" stop-color="#006FFF"/>
</radialGradient>
</defs>
</svg>
